<mxfile host="app.diagrams.net" modified="2023-06-22T18:50:04.122Z" agent="Mozilla/5.0 (X11; Linux x86_64; rv:109.0) Gecko/20100101 Firefox/114.0" etag="MdbWnCp_B4OaPxiH54qD" version="21.3.8" type="google">
  <diagram name="PÃ¡gina-1" id="xKPcFDQqDSlxi4M0DxXI">
    <mxGraphModel grid="1" page="1" gridSize="10" guides="1" tooltips="1" connect="1" arrows="1" fold="1" pageScale="1" pageWidth="827" pageHeight="1169" background="none" math="0" shadow="0">
      <root>
        <mxCell id="0" />
        <mxCell id="1" parent="0" />
        <mxCell id="_S_zV-5RmkQmG9-nolm3-10" style="edgeStyle=orthogonalEdgeStyle;rounded=0;orthogonalLoop=1;jettySize=auto;html=1;" edge="1" parent="1" source="_S_zV-5RmkQmG9-nolm3-1" target="_S_zV-5RmkQmG9-nolm3-2">
          <mxGeometry relative="1" as="geometry" />
        </mxCell>
        <mxCell id="_S_zV-5RmkQmG9-nolm3-1" value="" style="image;sketch=0;aspect=fixed;html=1;points=[];align=center;fontSize=12;image=img/lib/mscae/Person.svg;" vertex="1" parent="1">
          <mxGeometry x="-290" y="200" width="37" height="50" as="geometry" />
        </mxCell>
        <mxCell id="UhhUTZhZVvyzjejtmZy4-9" style="edgeStyle=orthogonalEdgeStyle;rounded=0;orthogonalLoop=1;jettySize=auto;html=1;" edge="1" parent="1" source="_S_zV-5RmkQmG9-nolm3-2" target="_S_zV-5RmkQmG9-nolm3-5">
          <mxGeometry relative="1" as="geometry" />
        </mxCell>
        <mxCell id="_S_zV-5RmkQmG9-nolm3-2" value="" style="sketch=0;pointerEvents=1;shadow=0;dashed=0;html=1;strokeColor=none;fillColor=#505050;labelPosition=center;verticalLabelPosition=bottom;verticalAlign=top;outlineConnect=0;align=center;shape=mxgraph.office.sites.website_public;" vertex="1" parent="1">
          <mxGeometry x="-130" y="201" width="58" height="48" as="geometry" />
        </mxCell>
        <mxCell id="_S_zV-5RmkQmG9-nolm3-4" style="edgeStyle=orthogonalEdgeStyle;rounded=0;orthogonalLoop=1;jettySize=auto;html=1;" edge="1" parent="1" source="_S_zV-5RmkQmG9-nolm3-3" target="_S_zV-5RmkQmG9-nolm3-2">
          <mxGeometry relative="1" as="geometry" />
        </mxCell>
        <mxCell id="_S_zV-5RmkQmG9-nolm3-3" value="Amazon S3" style="sketch=0;outlineConnect=0;fontColor=#232F3E;gradientColor=none;strokeColor=#ffffff;fillColor=#232F3E;dashed=0;verticalLabelPosition=middle;verticalAlign=bottom;align=center;html=1;whiteSpace=wrap;fontSize=10;fontStyle=1;spacing=3;shape=mxgraph.aws4.productIcon;prIcon=mxgraph.aws4.s3;" vertex="1" parent="1">
          <mxGeometry x="-141" y="20" width="80" height="100" as="geometry" />
        </mxCell>
        <mxCell id="_S_zV-5RmkQmG9-nolm3-12" style="edgeStyle=orthogonalEdgeStyle;rounded=0;orthogonalLoop=1;jettySize=auto;html=1;" edge="1" parent="1" source="_S_zV-5RmkQmG9-nolm3-5" target="_S_zV-5RmkQmG9-nolm3-6">
          <mxGeometry relative="1" as="geometry">
            <Array as="points">
              <mxPoint x="190" y="80" />
            </Array>
          </mxGeometry>
        </mxCell>
        <mxCell id="-CVJklYhz8DHlRd0m2M5-10" style="edgeStyle=orthogonalEdgeStyle;rounded=0;orthogonalLoop=1;jettySize=auto;html=1;" edge="1" parent="1" source="_S_zV-5RmkQmG9-nolm3-5" target="_S_zV-5RmkQmG9-nolm3-7">
          <mxGeometry relative="1" as="geometry" />
        </mxCell>
        <mxCell id="UhhUTZhZVvyzjejtmZy4-8" style="edgeStyle=orthogonalEdgeStyle;rounded=0;orthogonalLoop=1;jettySize=auto;html=1;" edge="1" parent="1" source="_S_zV-5RmkQmG9-nolm3-5" target="UhhUTZhZVvyzjejtmZy4-5">
          <mxGeometry relative="1" as="geometry">
            <Array as="points">
              <mxPoint x="180" y="500" />
            </Array>
          </mxGeometry>
        </mxCell>
        <mxCell id="_S_zV-5RmkQmG9-nolm3-5" value="Amazon API Gateway" style="sketch=0;outlineConnect=0;fontColor=#232F3E;gradientColor=none;strokeColor=#ffffff;fillColor=#232F3E;dashed=0;verticalLabelPosition=middle;verticalAlign=bottom;align=center;html=1;whiteSpace=wrap;fontSize=10;fontStyle=1;spacing=3;shape=mxgraph.aws4.productIcon;prIcon=mxgraph.aws4.api_gateway;" vertex="1" parent="1">
          <mxGeometry x="150" y="170" width="80" height="110" as="geometry" />
        </mxCell>
        <mxCell id="_S_zV-5RmkQmG9-nolm3-18" style="edgeStyle=orthogonalEdgeStyle;rounded=0;orthogonalLoop=1;jettySize=auto;html=1;" edge="1" parent="1" source="_S_zV-5RmkQmG9-nolm3-6" target="_S_zV-5RmkQmG9-nolm3-8">
          <mxGeometry relative="1" as="geometry">
            <Array as="points">
              <mxPoint x="640" y="90" />
            </Array>
          </mxGeometry>
        </mxCell>
        <mxCell id="-CVJklYhz8DHlRd0m2M5-6" style="edgeStyle=orthogonalEdgeStyle;rounded=0;orthogonalLoop=1;jettySize=auto;html=1;" edge="1" parent="1" source="_S_zV-5RmkQmG9-nolm3-6" target="_S_zV-5RmkQmG9-nolm3-5">
          <mxGeometry relative="1" as="geometry">
            <mxPoint x="170" y="160" as="targetPoint" />
            <Array as="points">
              <mxPoint x="180" y="70" />
            </Array>
          </mxGeometry>
        </mxCell>
        <mxCell id="_S_zV-5RmkQmG9-nolm3-6" value="AWS Lambda" style="sketch=0;outlineConnect=0;fontColor=#232F3E;gradientColor=none;strokeColor=#ffffff;fillColor=#232F3E;dashed=0;verticalLabelPosition=middle;verticalAlign=bottom;align=center;html=1;whiteSpace=wrap;fontSize=10;fontStyle=1;spacing=3;shape=mxgraph.aws4.productIcon;prIcon=mxgraph.aws4.lambda;" vertex="1" parent="1">
          <mxGeometry x="380" y="40" width="80" height="100" as="geometry" />
        </mxCell>
        <mxCell id="_S_zV-5RmkQmG9-nolm3-16" style="edgeStyle=orthogonalEdgeStyle;rounded=0;orthogonalLoop=1;jettySize=auto;html=1;" edge="1" parent="1" source="_S_zV-5RmkQmG9-nolm3-7" target="_S_zV-5RmkQmG9-nolm3-5">
          <mxGeometry relative="1" as="geometry">
            <Array as="points">
              <mxPoint x="400" y="225" />
            </Array>
          </mxGeometry>
        </mxCell>
        <mxCell id="_S_zV-5RmkQmG9-nolm3-7" value="AWS Lambda" style="sketch=0;outlineConnect=0;fontColor=#232F3E;gradientColor=none;strokeColor=#ffffff;fillColor=#232F3E;dashed=0;verticalLabelPosition=middle;verticalAlign=bottom;align=center;html=1;whiteSpace=wrap;fontSize=10;fontStyle=1;spacing=3;shape=mxgraph.aws4.productIcon;prIcon=mxgraph.aws4.lambda;" vertex="1" parent="1">
          <mxGeometry x="380" y="175" width="80" height="100" as="geometry" />
        </mxCell>
        <mxCell id="_S_zV-5RmkQmG9-nolm3-17" style="edgeStyle=orthogonalEdgeStyle;rounded=0;orthogonalLoop=1;jettySize=auto;html=1;" edge="1" parent="1" source="_S_zV-5RmkQmG9-nolm3-8" target="_S_zV-5RmkQmG9-nolm3-7">
          <mxGeometry relative="1" as="geometry">
            <Array as="points">
              <mxPoint x="610" y="225" />
            </Array>
          </mxGeometry>
        </mxCell>
        <mxCell id="_S_zV-5RmkQmG9-nolm3-8" value="Amazon DynamoDB" style="sketch=0;outlineConnect=0;fontColor=#232F3E;gradientColor=none;strokeColor=#ffffff;fillColor=#232F3E;dashed=0;verticalLabelPosition=middle;verticalAlign=bottom;align=center;html=1;whiteSpace=wrap;fontSize=10;fontStyle=1;spacing=3;shape=mxgraph.aws4.productIcon;prIcon=mxgraph.aws4.dynamodb;" vertex="1" parent="1">
          <mxGeometry x="570" y="445" width="80" height="110" as="geometry" />
        </mxCell>
        <mxCell id="-CVJklYhz8DHlRd0m2M5-16" style="edgeStyle=orthogonalEdgeStyle;rounded=0;orthogonalLoop=1;jettySize=auto;html=1;" edge="1" parent="1" source="YPW43YQpTHwkNbTBfdMD-2" target="-CVJklYhz8DHlRd0m2M5-15">
          <mxGeometry relative="1" as="geometry">
            <Array as="points">
              <mxPoint x="440" y="850" />
              <mxPoint x="440" y="850" />
            </Array>
          </mxGeometry>
        </mxCell>
        <mxCell id="YPW43YQpTHwkNbTBfdMD-2" value="" style="dashed=0;outlineConnect=0;html=1;align=center;labelPosition=center;verticalLabelPosition=bottom;verticalAlign=top;shape=mxgraph.weblogos.whatsapp;fillColor=#00E676;strokeColor=#dddddd" vertex="1" parent="1">
          <mxGeometry x="411.8" y="1020" width="74.4" height="74.8" as="geometry" />
        </mxCell>
        <mxCell id="-CVJklYhz8DHlRd0m2M5-1" value="Register user" style="text;html=1;strokeColor=none;fillColor=none;align=center;verticalAlign=middle;whiteSpace=wrap;rounded=0;" vertex="1" parent="1">
          <mxGeometry x="380" y="20" width="80" height="20" as="geometry" />
        </mxCell>
        <mxCell id="-CVJklYhz8DHlRd0m2M5-3" value="Username&lt;br&gt;passord&lt;br&gt;phone" style="text;html=1;strokeColor=none;fillColor=none;align=center;verticalAlign=middle;whiteSpace=wrap;rounded=0;" vertex="1" parent="1">
          <mxGeometry x="500" y="50" width="60" height="30" as="geometry" />
        </mxCell>
        <mxCell id="-CVJklYhz8DHlRd0m2M5-7" value="QR code" style="text;html=1;strokeColor=none;fillColor=none;align=center;verticalAlign=middle;whiteSpace=wrap;rounded=0;" vertex="1" parent="1">
          <mxGeometry x="180" y="50" width="60" height="20" as="geometry" />
        </mxCell>
        <mxCell id="-CVJklYhz8DHlRd0m2M5-9" value="Login" style="text;html=1;strokeColor=none;fillColor=none;align=center;verticalAlign=middle;whiteSpace=wrap;rounded=0;" vertex="1" parent="1">
          <mxGeometry x="384" y="160" width="76" height="15" as="geometry" />
        </mxCell>
        <mxCell id="-CVJklYhz8DHlRd0m2M5-13" style="edgeStyle=orthogonalEdgeStyle;rounded=0;orthogonalLoop=1;jettySize=auto;html=1;" edge="1" parent="1" source="-CVJklYhz8DHlRd0m2M5-11" target="_S_zV-5RmkQmG9-nolm3-8">
          <mxGeometry relative="1" as="geometry">
            <Array as="points">
              <mxPoint x="580" y="370" />
            </Array>
          </mxGeometry>
        </mxCell>
        <mxCell id="-CVJklYhz8DHlRd0m2M5-14" style="edgeStyle=orthogonalEdgeStyle;rounded=0;orthogonalLoop=1;jettySize=auto;html=1;" edge="1" parent="1" source="-CVJklYhz8DHlRd0m2M5-11" target="_S_zV-5RmkQmG9-nolm3-5">
          <mxGeometry relative="1" as="geometry" />
        </mxCell>
        <mxCell id="-CVJklYhz8DHlRd0m2M5-11" value="AWS Lambda" style="sketch=0;outlineConnect=0;fontColor=#232F3E;gradientColor=none;strokeColor=#ffffff;fillColor=#232F3E;dashed=0;verticalLabelPosition=middle;verticalAlign=bottom;align=center;html=1;whiteSpace=wrap;fontSize=10;fontStyle=1;spacing=3;shape=mxgraph.aws4.productIcon;prIcon=mxgraph.aws4.lambda;" vertex="1" parent="1">
          <mxGeometry x="382" y="310" width="80" height="100" as="geometry" />
        </mxCell>
        <mxCell id="-CVJklYhz8DHlRd0m2M5-12" value="Get bots" style="text;html=1;strokeColor=none;fillColor=none;align=center;verticalAlign=middle;whiteSpace=wrap;rounded=0;" vertex="1" parent="1">
          <mxGeometry x="384" y="290" width="76" height="20" as="geometry" />
        </mxCell>
        <mxCell id="5gagx0dxHm7mdpdY2_6O-2" style="edgeStyle=orthogonalEdgeStyle;rounded=0;orthogonalLoop=1;jettySize=auto;html=1;" edge="1" parent="1" source="-CVJklYhz8DHlRd0m2M5-15" target="UhhUTZhZVvyzjejtmZy4-1">
          <mxGeometry relative="1" as="geometry">
            <mxPoint x="590" y="750" as="targetPoint" />
          </mxGeometry>
        </mxCell>
        <mxCell id="5gagx0dxHm7mdpdY2_6O-7" style="edgeStyle=orthogonalEdgeStyle;rounded=0;orthogonalLoop=1;jettySize=auto;html=1;" edge="1" parent="1" source="-CVJklYhz8DHlRd0m2M5-15" target="_S_zV-5RmkQmG9-nolm3-8">
          <mxGeometry relative="1" as="geometry">
            <Array as="points">
              <mxPoint x="449" y="580" />
              <mxPoint x="610" y="580" />
            </Array>
          </mxGeometry>
        </mxCell>
        <mxCell id="5gagx0dxHm7mdpdY2_6O-16" style="edgeStyle=orthogonalEdgeStyle;rounded=0;orthogonalLoop=1;jettySize=auto;html=1;startArrow=classic;startFill=1;" edge="1" parent="1" source="-CVJklYhz8DHlRd0m2M5-15">
          <mxGeometry relative="1" as="geometry">
            <mxPoint x="300" y="890" as="targetPoint" />
            <Array as="points">
              <mxPoint x="301" y="760" />
            </Array>
          </mxGeometry>
        </mxCell>
        <mxCell id="-CVJklYhz8DHlRd0m2M5-15" value="AWS Fargate" style="sketch=0;outlineConnect=0;fontColor=#232F3E;gradientColor=none;strokeColor=#ffffff;fillColor=#232F3E;dashed=0;verticalLabelPosition=middle;verticalAlign=bottom;align=center;html=1;whiteSpace=wrap;fontSize=10;fontStyle=1;spacing=3;shape=mxgraph.aws4.productIcon;prIcon=mxgraph.aws4.fargate;" vertex="1" parent="1">
          <mxGeometry x="409" y="700" width="80" height="100" as="geometry" />
        </mxCell>
        <mxCell id="-CVJklYhz8DHlRd0m2M5-18" style="edgeStyle=orthogonalEdgeStyle;rounded=0;orthogonalLoop=1;jettySize=auto;html=1;startArrow=classic;startFill=1;" edge="1" parent="1" source="-CVJklYhz8DHlRd0m2M5-17" target="-CVJklYhz8DHlRd0m2M5-15">
          <mxGeometry relative="1" as="geometry">
            <Array as="points">
              <mxPoint x="370" y="730" />
              <mxPoint x="370" y="730" />
            </Array>
          </mxGeometry>
        </mxCell>
        <mxCell id="-CVJklYhz8DHlRd0m2M5-17" value="Amazon ECR" style="sketch=0;outlineConnect=0;fontColor=#232F3E;gradientColor=none;strokeColor=#ffffff;fillColor=#232F3E;dashed=0;verticalLabelPosition=middle;verticalAlign=bottom;align=center;html=1;whiteSpace=wrap;fontSize=10;fontStyle=1;spacing=3;shape=mxgraph.aws4.productIcon;prIcon=mxgraph.aws4.ecr;" vertex="1" parent="1">
          <mxGeometry x="170" y="700" width="80" height="100" as="geometry" />
        </mxCell>
        <mxCell id="5gagx0dxHm7mdpdY2_6O-18" value="Amazon S3" style="sketch=0;outlineConnect=0;fontColor=#232F3E;gradientColor=none;strokeColor=#ffffff;fillColor=#232F3E;dashed=0;verticalLabelPosition=middle;verticalAlign=bottom;align=center;html=1;whiteSpace=wrap;fontSize=10;fontStyle=1;spacing=3;shape=mxgraph.aws4.productIcon;prIcon=mxgraph.aws4.s3;" vertex="1" parent="1">
          <mxGeometry x="190" y="890" width="80" height="100" as="geometry" />
        </mxCell>
        <mxCell id="5gagx0dxHm7mdpdY2_6O-19" value="Amazon DynamoDB" style="sketch=0;outlineConnect=0;fontColor=#232F3E;gradientColor=none;strokeColor=#ffffff;fillColor=#232F3E;dashed=0;verticalLabelPosition=middle;verticalAlign=bottom;align=center;html=1;whiteSpace=wrap;fontSize=10;fontStyle=1;spacing=3;shape=mxgraph.aws4.productIcon;prIcon=mxgraph.aws4.dynamodb;" vertex="1" parent="1">
          <mxGeometry x="320" y="885" width="80" height="110" as="geometry" />
        </mxCell>
        <mxCell id="5gagx0dxHm7mdpdY2_6O-21" value="OR" style="text;html=1;strokeColor=none;fillColor=none;align=center;verticalAlign=middle;whiteSpace=wrap;rounded=0;" vertex="1" parent="1">
          <mxGeometry x="270" y="910" width="60" height="30" as="geometry" />
        </mxCell>
        <mxCell id="UhhUTZhZVvyzjejtmZy4-3" style="edgeStyle=orthogonalEdgeStyle;rounded=0;orthogonalLoop=1;jettySize=auto;html=1;" edge="1" parent="1" source="UhhUTZhZVvyzjejtmZy4-1" target="UhhUTZhZVvyzjejtmZy4-2">
          <mxGeometry relative="1" as="geometry" />
        </mxCell>
        <mxCell id="UhhUTZhZVvyzjejtmZy4-1" value="Amazon SQS" style="sketch=0;outlineConnect=0;fontColor=#232F3E;gradientColor=none;strokeColor=#ffffff;fillColor=#232F3E;dashed=0;verticalLabelPosition=middle;verticalAlign=bottom;align=center;html=1;whiteSpace=wrap;fontSize=10;fontStyle=1;spacing=3;shape=mxgraph.aws4.productIcon;prIcon=mxgraph.aws4.sqs;" vertex="1" parent="1">
          <mxGeometry x="640" y="700" width="80" height="100" as="geometry" />
        </mxCell>
        <mxCell id="UhhUTZhZVvyzjejtmZy4-2" value="AWS Lambda" style="sketch=0;outlineConnect=0;fontColor=#232F3E;gradientColor=none;strokeColor=#ffffff;fillColor=#232F3E;dashed=0;verticalLabelPosition=middle;verticalAlign=bottom;align=center;html=1;whiteSpace=wrap;fontSize=10;fontStyle=1;spacing=3;shape=mxgraph.aws4.productIcon;prIcon=mxgraph.aws4.lambda;" vertex="1" parent="1">
          <mxGeometry x="790" y="700" width="80" height="100" as="geometry" />
        </mxCell>
        <mxCell id="UhhUTZhZVvyzjejtmZy4-4" value="Get GPT response" style="text;html=1;strokeColor=none;fillColor=none;align=center;verticalAlign=middle;whiteSpace=wrap;rounded=0;" vertex="1" parent="1">
          <mxGeometry x="790" y="670" width="80" height="30" as="geometry" />
        </mxCell>
        <mxCell id="UhhUTZhZVvyzjejtmZy4-7" style="edgeStyle=orthogonalEdgeStyle;rounded=0;orthogonalLoop=1;jettySize=auto;html=1;" edge="1" parent="1" source="UhhUTZhZVvyzjejtmZy4-5" target="_S_zV-5RmkQmG9-nolm3-8">
          <mxGeometry relative="1" as="geometry" />
        </mxCell>
        <mxCell id="UhhUTZhZVvyzjejtmZy4-5" value="AWS Lambda" style="sketch=0;outlineConnect=0;fontColor=#232F3E;gradientColor=none;strokeColor=#ffffff;fillColor=#232F3E;dashed=0;verticalLabelPosition=middle;verticalAlign=bottom;align=center;html=1;whiteSpace=wrap;fontSize=10;fontStyle=1;spacing=3;shape=mxgraph.aws4.productIcon;prIcon=mxgraph.aws4.lambda;" vertex="1" parent="1">
          <mxGeometry x="380" y="450" width="80" height="100" as="geometry" />
        </mxCell>
        <mxCell id="UhhUTZhZVvyzjejtmZy4-6" value="Activate bot" style="text;html=1;strokeColor=none;fillColor=none;align=center;verticalAlign=middle;whiteSpace=wrap;rounded=0;" vertex="1" parent="1">
          <mxGeometry x="380" y="430" width="80" height="20" as="geometry" />
        </mxCell>
      </root>
    </mxGraphModel>
  </diagram>
</mxfile>
